<svg xmlns="http://www.w3.org/2000/svg" viewBox="0 0 791.82 494.33">
	<defs>
		<style>
			.cls-1{fill:#4257ff;}
		</style>
	</defs>
	<g id="Layer_2" data-name="Layer 2">
		<g id="Layer_2-2" data-name="Layer 2">
			<path class="cls-1" d="M385.46,30.88l-3.8.58-4,.65-7.93,1.39q-7.93,1.44-15.88,3-15.87,3.2-31.63,7Q290.76,51.09,260,61c-10.22,3.35-20.35,6.89-30.37,10.69S209.77,79.63,200,84s-19.23,9-28.54,14-18.25,10.46-27.44,16.16c-9,5.71-17.82,11.58-26.32,17.82s-16.68,12.8-24.42,19.72a240.14,240.14,0,0,0-21.65,21.88c-3.35,3.82-6.45,7.79-9.43,11.82s-5.69,8.19-8.2,12.45-4.79,8.6-6.83,13a139.65,139.65,0,0,0-5.37,13.71c-1.56,4.7-2.89,9.51-4.13,14.6l-1.9,7.94-1,4.09c-.19.76-.4,1.82-.59,2.89a110.8,110.8,0,0,0-1.37,14.21,141.13,141.13,0,0,0,.25,14.82,146.28,146.28,0,0,0,1.73,14.76c.18,1.23.42,2.44.67,3.65s.46,2.43.74,3.64c.59,2.39,1.1,4.82,1.81,7.18a142.88,142.88,0,0,0,4.67,14,135.71,135.71,0,0,0,6.21,13.34A132.5,132.5,0,0,0,65.53,364a144.16,144.16,0,0,0,21.64,20.36c1.91,1.6,4,3,6.07,4.44,1,.71,2,1.48,3.09,2.15l3.21,2,3.2,2c1.06.68,2.26,1.32,3.38,2l6.85,3.94c9.27,5,18.71,9.84,28.41,14.2s19.53,8.46,29.57,12.12l3.75,1.41,3.79,1.33,7.57,2.66c5.1,1.65,10.17,3.4,15.32,4.92,10.24,3.19,20.63,6,31.06,8.66a764.69,764.69,0,0,0,127.91,20.37c10.78.8,21.58,1.39,32.37,1.71,5.39.16,10.78.26,16.15.26h4l4,0c2.61,0,5.32-.15,8-.26l8.07-.38,8.13-.46c2.71-.14,5.41-.36,8.12-.54s5.41-.36,8.11-.6q16.22-1.31,32.33-3.25c10.73-1.37,21.44-2.87,32.08-4.72s21.21-4,31.69-6.41,20.87-5.23,31.14-8.33,20.36-6.67,30.29-10.58c5-1.94,9.86-4.06,14.74-6.21l7.22-3.38c2.39-1.16,4.74-2.38,7.12-3.57a277.2,277.2,0,0,0,27.31-16.12,231.33,231.33,0,0,0,24.9-19.29c1.91-1.79,3.88-3.52,5.76-5.34s3.72-3.68,5.54-5.55l5.32-5.76,5.22-6.1c3.56-4,6.81-8.24,10.13-12.42,1.69-2.07,3.21-4.24,4.78-6.39s3.15-4.28,4.65-6.46l4.38-6.62c.71-1.11,1.5-2.19,2.16-3.33l2-3.39,2-3.39c.68-1.13,1.37-2.26,2-3.42l3.69-6.94a182.67,182.67,0,0,0,11.6-28.85,137.46,137.46,0,0,0,5.57-30.2c.15-1.27.13-2.56.19-3.83l.14-3.84c.08-1.28,0-2.56,0-3.85l-.07-3.84c0-1.28-.13-2.57-.22-3.85l-.29-3.85c-.06-1.31-.26-2.49-.4-3.72s-.36-2.43-.56-3.64a94.08,94.08,0,0,0-9.83-28A128.26,128.26,0,0,0,742.21,167a180.93,180.93,0,0,0-22.88-21.22,242.56,242.56,0,0,0-26.12-17.85A184.43,184.43,0,0,0,665,114.71l-3.72-1.39c-1.24-.47-2.48-.94-3.75-1.34l-7.58-2.53c-2.53-.84-5.12-1.55-7.67-2.33s-5.13-1.55-7.73-2.21l-7.78-2.07c-2.61-.68-5.24-1.26-7.85-1.9-5.22-1.3-10.52-2.35-15.79-3.47A603.52,603.52,0,0,0,538.89,88l-8.09-.75c-2.7-.26-5.41-.41-8.11-.62l-8.1-.58-8.12-.43-8.12-.41L490.19,85c-5.45-.15-10.89-.39-16.33-.46l-16.31-.16c-5.43,0-10.85.15-16.27.21s-10.83.31-16.24.52l-8.1.33-8.08.55c-5.38.38-10.77.68-16.12,1.29l-8,.8-4,.41-4,.53-8,1.07-4,.54c-1.32.19-2.64.44-4,.65l-7.93,1.35c-2.64.45-5.28.87-7.9,1.45-42.09,8-82.53,22.61-121.75,40.85a15.5,15.5,0,1,1-13.07-28.11,6.65,6.65,0,0,1,.61-.27l.06,0c20.72-8.48,41.85-16.33,63.47-22.92a516.57,516.57,0,0,1,66-15.52c2.78-.53,5.58-.9,8.38-1.3L357,65.57c1.4-.19,2.8-.41,4.2-.57l4.2-.45,8.41-.91,4.2-.46,4.2-.33,8.41-.66c5.61-.5,11.21-.7,16.82-1,22.4-1,44.76-.89,67-.11,5.56.15,11.11.48,16.66.72l8.33.39,8.36.55,8.36.57,8.34.73c2.79.26,5.57.45,8.35.77l8.33.9c11.11,1.21,22.18,2.77,33.23,4.49,5.53.85,11,1.86,16.56,2.79l8.24,1.61c2.75.55,5.51,1,8.24,1.68,5.48,1.21,11,2.35,16.42,3.76,2.72.69,5.46,1.33,8.18,2.05l8.15,2.25c2.72.72,5.42,1.56,8.12,2.4s5.41,1.62,8.09,2.54l8.06,2.76c1.34.45,2.67,1,4,1.47l4,1.54a210,210,0,0,1,31.37,15,263.35,263.35,0,0,1,28.27,19.48,202.17,202.17,0,0,1,25.37,23.74,148.63,148.63,0,0,1,20.43,28.89,114.28,114.28,0,0,1,11.91,34.07c.26,1.5.53,3,.7,4.51s.41,3.05.49,4.49l.34,4.38c.11,1.46.26,2.91.27,4.39l.11,4.4c0,1.47.1,2.94,0,4.41l-.14,4.41c-.06,1.47,0,2.94-.21,4.4a157.7,157.7,0,0,1-6.23,34.63,202.35,202.35,0,0,1-12.86,32.38l-4,7.64c-.65,1.29-1.39,2.52-2.12,3.76l-2.19,3.7-2.2,3.7c-.71,1.25-1.54,2.41-2.31,3.61l-4.7,7.17c-6.54,9.33-13.35,18.43-20.66,27l-5.46,6.48-5.82,6.42c-2,2.1-4,4.13-6.06,6.19s-4.2,4-6.29,5.94a251.85,251.85,0,0,1-27,21.37,322.4,322.4,0,0,1-60.23,32.1q-15.74,6.45-31.87,11.62t-32.51,9.18c-10.92,2.71-21.9,5-32.92,7.14s-22.07,3.84-33.15,5.43-22.18,2.83-33.3,3.91c-2.78.3-5.56.5-8.34.76s-5.56.51-8.34.7l-8.34.62-8.41.53c-2.81.17-5.6.37-8.49.42l-4.3.12-4.22.07c-5.64.09-11.25.08-16.86,0-11.22-.14-22.41-.56-33.59-1.2a792.42,792.42,0,0,1-132.94-18.85C181.92,464,138.67,449.59,98.19,428l-7.52-4.19c-1.25-.72-2.49-1.36-3.76-2.14l-3.81-2.33L79.29,417c-1.26-.78-2.47-1.67-3.71-2.5-2.45-1.72-5-3.32-7.33-5.2A172.85,172.85,0,0,1,41.6,384.79,164.82,164.82,0,0,1,6.93,321.14c-.89-2.91-1.57-5.86-2.3-8.8-.36-1.48-.64-3-.95-4.44s-.62-3-.86-4.46A180.3,180.3,0,0,1,.06,267.27a141.37,141.37,0,0,1,1.66-18.63c.27-1.65.57-3.29,1-5.21l.93-3.93,1.89-8.12C6.9,225.77,8.47,220,10.35,214.2a173.78,173.78,0,0,1,6.58-17c2.52-5.57,5.34-11,8.38-16.22s6.4-10.27,9.88-15.16,7.2-9.56,11.07-14.05A265.86,265.86,0,0,1,71,126.65c8.67-7.75,17.69-15,26.92-21.77s18.74-13.12,28.32-19.2c9.51-5.9,19.38-11.82,29.5-17.25s20.4-10.31,30.78-15,20.9-8.83,31.49-12.79,21.26-7.57,32-11c21.46-6.8,43.17-12.53,65-17.51q16.39-3.67,32.94-6.73c5.51-1,11-2,16.6-2.86l8.36-1.28,4.21-.61,4.36-.57a15.49,15.49,0,0,1,4.42,30.67Z" />
		</g>
	</g>
</svg>
