<svg width="38" height="38" viewBox="0 0 38 38" fill="none" xmlns="http://www.w3.org/2000/svg">
	<g clip-path="url(#clip0_2004_17)">
		<path d="M32.2437 5.8796C31.8757 6.9059 31.6812 7.92921 31.6662 8.9585C31.6513 9.98779 31.8128 11.0171 32.1539 12.0524L32.2736 12.4084L31.9176 12.2887C30.9032 11.9506 29.8829 11.7861 28.8566 11.798C27.8273 11.813 26.792 12.0045 25.7448 12.3755L25.3708 12.5072L25.5054 12.1331C25.8735 11.1098 26.068 10.0835 26.0829 9.05425C26.0979 8.02496 25.9363 6.99567 25.5952 5.96039L25.4785 5.60433L25.8346 5.72401C26.8489 6.06212 27.8692 6.22669 28.8955 6.21472C29.9218 6.19976 30.9601 6.00827 32.0043 5.63724L32.3783 5.50559L32.2437 5.8796ZM37.6415 19.0868C36.6571 19.5506 35.7954 20.1401 35.0563 20.8552C34.3172 21.5703 33.7039 22.4141 33.2131 23.3865L33.0456 23.7217L32.878 23.3865C32.4023 22.4291 31.7949 21.5942 31.0588 20.8761C30.3198 20.158 29.452 19.5626 28.4497 19.0868L28.0906 18.9163L28.4497 18.7487C29.4341 18.285 30.2958 17.6955 31.0349 16.9804C31.7739 16.2653 32.3873 15.4215 32.878 14.4461L33.0456 14.1109L33.2131 14.4461C33.6919 15.4035 34.2963 16.2413 35.0324 16.9565C35.7684 17.6746 36.6361 18.27 37.6415 18.7487L38.0005 18.9193L37.6415 19.0898V19.0868ZM31.7829 28.892C31.7979 29.9183 31.9894 30.9566 32.3604 32.0009L32.492 32.3749L32.118 32.2402C31.0917 31.8722 30.0684 31.6777 29.0391 31.6628C28.0098 31.6478 26.9805 31.8094 25.9453 32.1505L25.5892 32.2702L25.7089 31.9141C26.047 30.8998 26.2116 29.8794 26.1996 28.8531C26.1846 27.8239 25.9931 26.7886 25.6221 25.7413L25.4905 25.3673L25.8645 25.502C26.8878 25.87 27.9141 26.0645 28.9434 26.0794C29.9727 26.0944 31.002 25.9328 32.0372 25.5917L32.3933 25.475L32.2736 25.8311C31.9355 26.8454 31.7709 27.8657 31.7829 28.892ZM23.5546 33.2127C22.5971 33.6914 21.7593 34.2958 21.0442 35.0319C20.3261 35.768 19.7306 36.6357 19.2549 37.641L19.0843 38.0001L18.9138 37.641C18.45 36.6566 17.8605 35.7949 17.1454 35.0558C16.4303 34.3168 15.5865 33.7034 14.6141 33.2127L14.279 33.0451L14.6141 32.8776C15.5716 32.4018 16.4064 31.7944 17.1245 31.0583C17.8426 30.3223 18.438 29.4516 18.9138 28.4492L19.0843 28.0902L19.2549 28.4492C19.7187 29.4336 20.3051 30.2954 21.0232 31.0344C21.7383 31.7735 22.5821 32.3868 23.5576 32.8776L23.8927 33.0451L23.5576 33.2127H23.5546ZM12.4957 25.861C12.1276 26.8843 11.9331 27.9106 11.9182 28.9399C11.9032 29.9692 12.0648 30.9985 12.4059 32.0338L12.5226 32.3898L12.1665 32.2702C11.1522 31.932 10.1319 31.7675 9.10559 31.7794C8.07929 31.7944 7.04102 31.9859 5.99677 32.3569L5.62276 32.4886L5.7574 32.1146C6.12543 31.0883 6.31992 30.065 6.33488 29.0357C6.34984 28.0064 6.18827 26.9771 5.84716 25.9418L5.72748 25.5857L6.08354 25.7054C7.09787 26.0435 8.11819 26.2081 9.14449 26.1961C10.1738 26.1812 11.2091 25.9897 12.2563 25.6187L12.6303 25.487L12.4957 25.861ZM9.54842 19.2544C8.56401 19.7182 7.70228 20.3046 6.96323 21.0228C6.22417 21.7409 5.61079 22.5817 5.12008 23.5571L4.95252 23.8922L4.78496 23.5571C4.30622 22.5996 3.70181 21.7618 2.96575 21.0467C2.22968 20.3286 1.36197 19.7331 0.356614 19.2574L-0.00244141 19.0868L0.356614 18.9163C1.34102 18.4525 2.20276 17.8631 2.94181 17.148C3.68087 16.4298 4.29425 15.5891 4.78496 14.6136L4.95252 14.2785L5.12008 14.6136C5.59583 15.5711 6.20323 16.4059 6.93929 17.124C7.67535 17.8421 8.54606 18.4376 9.54842 18.9133L9.90748 19.0839L9.54842 19.2544ZM11.7985 9.14701C11.8135 10.1763 12.005 11.2116 12.376 12.2588L12.5076 12.6328L12.1336 12.4982C11.1103 12.1302 10.084 11.9357 9.05472 11.9207C8.02543 11.9057 6.99614 12.0673 5.96087 12.4084L5.6048 12.5251L5.72449 12.1691C6.0626 11.1547 6.22716 10.1344 6.2152 9.10811C6.20024 8.08181 6.00874 7.04354 5.63772 5.99929L5.50606 5.62527L5.88008 5.75992C6.90638 6.12795 7.92968 6.32244 8.95898 6.3374C9.98827 6.35236 11.0176 6.19078 12.0528 5.84968L12.4089 5.73L12.2892 6.08606C11.9511 7.10039 11.7865 8.12071 11.7985 9.14701ZM23.384 5.1226C22.4265 5.59834 21.5917 6.20575 20.8736 6.94181C20.1555 7.68086 19.5601 8.54858 19.0843 9.55094L18.9138 9.91L18.7432 9.55094C18.2794 8.56653 17.693 7.7048 16.9749 6.96575C16.2568 6.22669 15.416 5.61331 14.4405 5.1226L14.1054 4.95504L14.4405 4.78748C15.398 4.30874 16.2358 3.70433 16.9509 2.96827C17.6691 2.2322 18.2645 1.36449 18.7402 0.359131L18.9108 7.62939e-05L19.0813 0.359131C19.5451 1.34354 20.1346 2.20527 20.8497 2.94433C21.5678 3.68338 22.4086 4.29677 23.384 4.78748L23.7191 4.95504L23.384 5.1226Z" fill="#4C4B44" />
	</g>
	<defs>
		<clipPath id="clip0_2004_17">
			<rect width="38" height="38" fill="white" />
		</clipPath>
	</defs>
</svg>
