<svg width="343" height="343" viewBox="0 0 343 343" fill="none" xmlns="http://www.w3.org/2000/svg">
<path d="M340.38 200.8C338.912 209.024 321.344 214.334 295.59 214.334H294.937C285.31 206.492 273.616 198.513 260.453 191.025C256.673 188.873 252.893 186.831 249.113 184.925C253.355 184.38 257.598 183.754 261.867 183.019C276.417 180.486 290.178 176.946 302.225 172.753C326.266 181.276 341.93 192.059 340.353 200.773L340.38 200.8ZM320.011 255.997C317.645 260.028 311.39 260.872 306.549 260.872C297.656 260.872 285.799 258.176 272.609 253.383C267.497 244.805 261.133 235.71 253.736 226.452C253.491 226.152 253.219 225.826 252.974 225.526C252.349 224.736 251.723 223.974 251.071 223.184C250.146 222.068 249.221 220.951 248.27 219.862C245.469 216.567 242.613 213.381 239.758 210.331C243.864 211.23 248.052 212.074 252.376 212.809C266.708 215.287 280.986 216.649 293.849 216.758C313.484 232.878 324.471 248.318 319.984 255.97L320.011 255.997ZM230.158 330.338C229.396 330.61 228.553 330.746 227.683 330.746C219.089 330.746 206.987 317.893 195.538 298.205C197.605 286.087 198.747 272.145 198.747 257.196C198.747 252.92 198.638 248.672 198.448 244.506C201.004 247.801 203.669 251.096 206.498 254.418C213.46 262.587 220.639 270.103 227.737 276.666C230.429 279.144 233.067 281.513 235.705 283.718C240.22 308.526 238.588 327.315 230.158 330.338ZM171.497 340.549C162.496 340.549 154.446 323.448 150.094 298.586C156.295 287.83 162.251 275.113 167.364 261.226C168.859 257.168 170.219 253.165 171.497 249.217C172.748 253.165 174.135 257.168 175.631 261.226C180.744 275.086 186.699 287.803 192.9 298.586C188.549 323.448 180.499 340.549 171.497 340.549ZM115.312 330.773C114.441 330.773 113.598 330.637 112.837 330.365C104.379 327.342 102.747 308.553 107.289 283.746C116.889 275.685 126.897 265.692 136.47 254.445C139.298 251.15 141.963 247.828 144.519 244.533C144.329 248.672 144.22 252.893 144.22 257.223C144.22 272.173 145.39 286.115 147.429 298.232C136.007 317.92 123.878 330.773 115.312 330.773ZM67.0943 302.807C64.6467 302.807 62.6887 302.208 61.2473 301.01C56.4337 297.034 57.304 286.387 63.6405 271.791C65.8977 266.59 68.7532 261.062 72.1255 255.371C84.0098 250.987 96.9276 244.969 109.791 237.644C113.571 235.493 117.243 233.287 120.805 231.054C119.173 234.893 117.623 238.815 116.128 242.872C110.933 256.978 107.18 270.511 104.896 282.629C89.8296 295.21 76.0688 302.807 67.1215 302.807H67.0943ZM36.418 260.899C31.5772 260.899 25.3223 260.055 22.9563 256.025C18.4691 248.345 29.456 232.933 49.091 216.812C61.9272 216.703 76.2047 215.342 90.5639 212.864C94.8879 212.101 99.1032 211.257 103.21 210.386C100.354 213.436 97.4987 216.622 94.6976 219.916C85.1792 231.108 76.9118 242.573 70.4121 253.438C57.1952 258.258 45.338 260.953 36.418 260.953V260.899ZM47.3777 214.361C21.6509 214.361 4.08272 209.051 2.58698 200.828C1.03685 192.114 16.6742 181.33 40.6876 172.807C52.436 176.919 66.1425 180.459 81.0727 183.046C85.3424 183.781 89.6121 184.435 93.8273 184.979C90.0472 186.885 86.2942 188.928 82.4869 191.079C69.3243 198.567 57.6575 206.546 48.0304 214.389H47.3505L47.3777 214.361ZM22.9563 86.8937C25.3223 82.8635 31.5772 82.0194 36.418 82.0194C45.3109 82.0194 57.168 84.7152 70.3578 89.5079C76.6943 100.101 84.9073 111.538 94.6704 123.029C97.4715 126.324 100.327 129.51 103.183 132.56C99.076 131.661 94.8608 130.817 90.5367 130.082C83.058 128.775 75.5793 127.794 68.3181 127.114C61.6824 126.515 55.21 126.188 49.0638 126.133C29.4288 110.013 18.4419 94.6 22.9291 86.9209L22.9563 86.8937ZM61.2473 41.9083C62.6887 40.7101 64.6467 40.1111 67.0943 40.1111C76.0416 40.1111 89.8296 47.7357 104.896 60.2891C107.18 72.4069 110.906 85.9406 116.128 100.019C117.623 104.076 119.201 108.025 120.805 111.864C117.27 109.631 113.598 107.426 109.791 105.275C96.9548 97.9494 84.0642 91.9586 72.1798 87.5745C59.3165 65.7898 54.3397 47.5996 61.2201 41.9083H61.2473ZM112.837 12.5534C113.598 12.2811 114.441 12.145 115.312 12.145C123.878 12.145 136.007 24.9979 147.429 44.6586C145.362 56.7764 144.22 70.7186 144.22 85.6955C144.22 87.1388 144.22 88.582 144.247 90.0252C144.247 91.0328 144.275 92.0403 144.329 93.0479C144.329 93.4291 144.329 93.8376 144.356 94.2188C144.383 95.6348 144.465 97.0236 144.519 98.3851C141.963 95.0902 139.298 91.7952 136.47 88.4731C126.897 77.2267 116.889 67.233 107.289 59.1727C102.747 34.3654 104.379 15.6033 112.837 12.5534ZM227.683 12.145C228.553 12.145 229.369 12.2811 230.158 12.5534C236.032 14.6502 238.914 24.9707 238.044 40.8191C237.745 46.4831 236.956 52.6373 235.787 59.1182C226.187 67.2058 216.125 77.1995 206.525 88.4731C203.724 91.768 201.059 95.0629 198.475 98.3851C198.665 94.246 198.774 90.0252 198.774 85.6955C198.774 84.1978 198.774 82.7274 198.747 81.2297C198.747 81.0663 198.747 80.9029 198.747 80.7395C198.747 79.5141 198.693 78.2887 198.665 77.0633C198.638 76.0013 198.584 74.9938 198.557 73.959C198.557 73.6323 198.557 73.3055 198.529 73.006C198.067 62.8216 197.061 53.2908 195.592 44.6586C207.041 24.9707 219.143 12.145 227.737 12.145H227.683ZM275.9 40.1111C278.32 40.1111 280.306 40.7374 281.747 41.9083C288.628 47.5996 283.678 65.7898 270.815 87.5745C258.93 91.9586 246.067 97.9494 233.231 105.275C229.423 107.426 225.752 109.631 222.216 111.864C223.848 108.025 225.398 104.076 226.894 100.019C231.952 86.2946 235.76 72.7064 238.071 60.3164C253.138 47.7085 266.953 40.0838 275.9 40.0838V40.1111ZM306.576 82.0194C311.417 82.0194 317.672 82.8635 320.038 86.8937C323.166 92.2582 318.651 101.952 307.664 113.553C303.748 117.692 299.152 121.913 294.012 126.106C281.149 126.215 266.817 127.577 252.458 130.055C248.134 130.79 243.918 131.634 239.839 132.533C242.695 129.483 245.523 126.297 248.351 123.002C258.114 111.538 266.327 100.101 272.664 89.4806C285.854 84.688 297.711 81.9921 306.604 81.9921L306.576 82.0194ZM217.485 171.446C226.214 168.532 235.597 164.638 245.197 159.927C250.554 160.553 256.02 161.316 261.487 162.269C274.867 164.583 287.458 167.797 298.499 171.473C287.322 175.203 274.731 178.335 261.487 180.622C256.02 181.575 250.581 182.338 245.197 182.964C235.569 178.253 226.187 174.359 217.457 171.446H217.485ZM218.735 184.571C216.206 184.571 213.759 184.516 211.393 184.407C207.205 181.249 203.125 178.526 199.291 176.265C203.724 175.448 208.483 174.25 213.541 172.698C221.945 175.34 231.109 178.961 240.546 183.427C232.959 184.162 225.616 184.544 218.735 184.544V184.571ZM214.711 186.967C216.043 186.994 217.349 187.022 218.735 187.022C226.894 187.022 235.705 186.504 244.761 185.497C249.548 187.866 254.416 190.425 259.229 193.203C271.005 199.902 281.72 207.145 290.803 214.334C278.919 214.062 265.919 212.728 252.866 210.467C247.345 209.514 241.96 208.398 236.739 207.172C229.314 199.493 221.836 192.686 214.683 187.022L214.711 186.967ZM268.775 251.967C257.87 247.746 246.148 242.164 234.454 235.52C229.586 232.769 224.909 229.883 220.449 226.969C216.125 217.221 211.474 208.343 206.715 200.637C215.2 203.877 224.909 206.846 235.515 209.351C239.186 213.19 242.831 217.221 246.42 221.441C255.15 231.707 262.71 242.137 268.775 251.94V251.967ZM208.428 252.866C204.839 248.645 201.439 244.37 198.23 240.122C197.578 229.665 196.299 219.726 194.504 210.794C201.33 216.703 209.407 222.748 218.436 228.63C220.585 233.477 222.597 238.515 224.528 243.689C229.179 256.297 232.687 268.66 234.971 279.933C234.237 279.307 233.53 278.653 232.768 278C224.718 270.784 216.424 262.288 208.401 252.866H208.428ZM165.541 212.455C167.962 207.826 169.974 203.442 171.524 199.33C173.075 203.442 175.087 207.826 177.507 212.455C176.338 221.033 174.353 230.537 171.524 240.53C168.723 230.537 166.711 221.006 165.541 212.455ZM151.699 207.935C154.255 205.62 156.621 203.278 158.797 200.991C159.885 199.847 160.891 198.731 161.843 197.642C161.87 202.026 162.251 206.846 162.903 211.992C158.824 219.644 153.657 227.922 147.538 236.364C148.354 226.016 149.795 216.376 151.672 207.935H151.699ZM148.49 210.767C146.722 219.562 145.444 229.447 144.791 240.149C141.61 244.37 138.21 248.645 134.593 252.866C125.863 263.132 116.78 272.336 108.05 279.933C110.335 268.66 113.816 256.297 118.466 243.689C120.397 238.488 122.41 233.45 124.558 228.63C133.424 222.83 141.528 216.785 148.463 210.794L148.49 210.767ZM140.223 199.085C145.091 197.097 149.496 194.973 153.358 192.822C151.862 196.961 150.53 201.645 149.36 206.737C142.779 212.646 135.028 218.637 126.489 224.41C130.84 214.988 135.518 206.41 140.223 199.085ZM136.334 200.61C131.574 208.316 126.897 217.221 122.6 226.969C118.113 229.883 113.435 232.742 108.594 235.493C96.8732 242.164 85.1248 247.746 74.1923 251.967C80.3656 242.001 87.9803 231.599 96.6284 221.441C100.245 217.221 103.89 213.19 107.534 209.351C118.14 206.846 127.849 203.877 136.334 200.61ZM132.418 186.831C133.043 186.804 133.641 186.777 134.267 186.749C136.252 186.64 138.183 186.477 140.032 186.314C142.534 186.069 144.927 185.769 147.185 185.388C144.356 188.764 141.501 192.658 138.672 197.015C130.514 200.31 121.077 203.387 110.824 206.029C118.167 198.622 125.51 192.141 132.445 186.858L132.418 186.831ZM124.313 187.022C125.673 187.022 127.006 187.022 128.338 186.967C121.186 192.631 113.734 199.439 106.31 207.118C101.088 208.343 95.7038 209.46 90.1832 210.413C77.1294 212.673 64.1028 214.007 52.2185 214.307C61.3289 207.118 72.0167 199.875 83.7922 193.176C88.633 190.425 93.4738 187.839 98.2602 185.469C107.316 186.477 116.128 186.994 124.286 186.994L124.313 187.022ZM44.631 171.473C55.6451 167.797 68.2093 164.611 81.5622 162.296C87.0285 161.343 92.4676 160.553 97.825 159.954C107.452 164.665 116.835 168.532 125.564 171.473C116.835 174.386 107.452 178.28 97.825 182.991C92.4676 182.365 87.0285 181.603 81.5622 180.65C68.2093 178.335 55.6451 175.149 44.631 171.473ZM47.4321 128.557C47.6497 128.557 47.8944 128.557 48.112 128.557C57.7391 136.399 69.4331 144.351 82.5685 151.839C86.3486 153.991 90.1288 156.006 93.9089 157.939C89.6936 158.484 85.424 159.11 81.1543 159.845C66.2241 162.432 52.5176 165.999 40.7692 170.084C16.6742 161.561 1.00965 150.805 2.58698 142.063C2.96772 139.912 4.46346 137.979 6.88384 136.263C13.7643 131.416 28.341 128.502 47.3777 128.502L47.4321 128.557ZM90.1832 132.505C95.7038 133.458 101.088 134.575 106.31 135.8C113.734 143.507 121.186 150.287 128.338 155.951C127.033 155.924 125.7 155.897 124.313 155.897C116.127 155.897 107.343 156.414 98.2874 157.422C93.501 155.053 88.6602 152.493 83.8194 149.715C72.0439 143.017 61.3289 135.773 52.2457 128.584C57.3856 128.693 62.7159 129.02 68.1821 129.537C75.3617 130.191 82.786 131.198 90.1832 132.478V132.505ZM136.334 142.309C127.849 139.041 118.14 136.073 107.534 133.567C103.862 129.755 100.218 125.698 96.6284 121.477C87.8987 111.211 80.3384 100.781 74.2739 90.9783C85.1792 95.1991 96.9004 100.781 108.594 107.426C113.462 110.203 118.14 113.063 122.6 115.949C126.924 125.698 131.574 134.602 136.334 142.309ZM149.387 136.29C150.557 141.355 151.889 145.985 153.358 150.124C149.469 147.973 145.091 145.876 140.223 143.861C135.518 136.563 130.867 127.985 126.516 118.563C135.191 124.445 142.915 130.463 149.387 136.29ZM148.49 132.124C141.664 126.242 133.614 120.197 124.558 114.315C122.437 109.468 120.397 104.43 118.466 99.2565C113.816 86.6486 110.308 74.2858 108.05 63.0122C116.78 70.6096 125.863 79.8137 134.593 90.0797C138.183 94.3005 141.582 98.5757 144.791 102.797C145.444 113.471 146.722 123.356 148.49 132.124ZM149.496 48.2531C155.071 58.3557 160.456 70.0106 165.079 82.5368C167.01 87.7378 168.696 92.8845 170.219 97.9222C167.146 108.161 164.916 117.882 163.529 126.732C159.151 118.89 153.684 110.503 147.239 101.925C146.913 96.6696 146.749 91.2506 146.749 85.7228C146.749 72.3524 147.756 59.5811 149.496 48.2531ZM194.586 132.124C196.354 123.356 197.632 113.444 198.285 102.769C201.466 98.5213 204.893 94.2733 208.456 90.0797C217.213 79.7864 226.323 70.5824 235.08 62.9578C232.768 74.3947 229.206 86.7575 224.583 99.2565C222.679 104.43 220.639 109.468 218.491 114.315C209.462 120.197 201.412 126.242 194.586 132.124ZM202.853 143.861C197.985 145.876 193.58 147.973 189.691 150.124C189.936 149.416 190.208 148.708 190.425 147.973C191.622 144.405 192.71 140.484 193.661 136.29C200.134 130.463 207.885 124.445 216.533 118.563C212.181 127.958 207.504 136.536 202.826 143.833L202.853 143.861ZM206.715 142.336C211.474 134.629 216.125 125.752 220.449 116.003C224.909 113.09 229.586 110.231 234.454 107.453C246.148 100.809 257.87 95.2263 268.775 91.0055C262.71 100.809 255.15 111.238 246.42 121.504C242.831 125.725 239.159 129.782 235.515 133.595C224.909 136.1 215.2 139.068 206.715 142.336ZM210.658 156.115C205.247 156.36 200.297 156.85 195.891 157.558C198.72 154.181 201.575 150.287 204.404 145.93C212.562 142.608 221.999 139.531 232.252 136.917C224.909 144.324 217.566 150.805 210.631 156.087L210.658 156.115ZM218.735 155.924C217.376 155.924 216.043 155.924 214.711 155.978C221.863 150.314 229.314 143.534 236.766 135.828C241.96 134.602 247.345 133.486 252.893 132.533C265.974 130.245 279 128.938 290.939 128.639C281.693 135.909 270.923 143.125 259.257 149.77C254.416 152.52 249.575 155.107 244.789 157.476C235.733 156.469 226.948 155.951 218.763 155.951L218.735 155.924ZM199.291 166.653C203.125 164.42 207.205 161.67 211.393 158.511C213.759 158.429 216.206 158.375 218.708 158.375C225.589 158.375 232.959 158.756 240.546 159.491C231.082 163.957 221.945 167.579 213.541 170.247C208.51 168.695 203.724 167.497 199.291 166.68V166.653ZM189.501 171.5C191.54 170.71 193.661 169.73 195.864 168.559C199.998 169.158 204.485 170.166 209.272 171.5C204.485 172.834 199.998 173.815 195.864 174.441C193.661 173.27 191.513 172.29 189.501 171.5ZM195.891 185.415C200.297 186.15 205.247 186.64 210.658 186.858C217.593 192.141 224.909 198.622 232.279 206.029C222.026 203.415 212.589 200.337 204.431 197.015C201.602 192.658 198.747 188.764 195.919 185.388L195.891 185.415ZM188.277 189.2C187.325 186.885 186.319 184.816 185.312 182.91C187.379 183.59 189.636 184.19 192.111 184.707C194.804 187.73 197.55 191.27 200.297 195.273C195.81 193.285 191.785 191.242 188.304 189.173L188.277 189.2ZM191.105 197.124C190.643 195.627 190.153 194.211 189.691 192.849C193.553 195 197.985 197.124 202.853 199.139C207.558 206.464 212.209 215.015 216.56 224.437C207.885 218.555 200.134 212.537 193.661 206.709C192.9 203.333 192.03 200.174 191.132 197.151L191.105 197.124ZM181.124 193.775C181.016 191.27 180.798 188.955 180.472 186.831C182.185 188.165 184.116 189.527 186.264 190.861C187.135 193.012 187.95 195.327 188.712 197.832C189.283 199.684 189.827 201.617 190.344 203.605C186.781 200.229 183.681 196.906 181.124 193.775ZM180.118 212.047C180.771 206.9 181.124 202.08 181.179 197.696C184.089 201.045 187.515 204.531 191.404 208.071C193.335 216.649 194.695 226.261 195.511 236.473C189.392 228.004 184.197 219.726 180.145 212.047H180.118ZM165.46 184.299C166.249 183.536 166.956 182.801 167.608 182.066C167.608 183.019 167.663 184.026 167.771 185.088C166.928 186.722 165.841 188.438 164.59 190.235C164.78 188.084 165.052 186.096 165.46 184.326V184.299ZM161.353 181.521C162.332 181.085 163.284 180.622 164.127 180.159C163.801 181.058 163.502 182.038 163.257 183.073C161.87 184.298 160.293 185.551 158.471 186.804C159.395 184.843 160.347 183.1 161.353 181.548V181.521ZM157.709 182.91C156.649 184.789 155.67 186.913 154.718 189.2C151.237 191.27 147.185 193.312 142.697 195.3C145.444 191.297 148.191 187.757 150.883 184.734C153.358 184.217 155.642 183.618 157.709 182.91ZM147.13 168.559C149.333 169.73 151.481 170.71 153.494 171.5C151.454 172.29 149.333 173.27 147.13 174.441C142.996 173.842 138.509 172.862 133.723 171.5C138.509 170.166 142.996 169.158 147.13 168.559ZM143.704 166.653C139.271 167.47 134.512 168.668 129.48 170.22C121.077 167.579 111.912 163.93 102.448 159.464C110.036 158.729 117.378 158.347 124.286 158.347C126.815 158.347 129.263 158.402 131.602 158.484C135.79 161.642 139.869 164.366 143.704 166.626V166.653ZM149.741 160.58C151.4 162.405 153.059 164.012 154.663 165.428C152.406 165.482 150.013 165.7 147.457 166.054C143.84 164.093 139.978 161.67 135.953 158.783C141.038 159.137 145.662 159.736 149.741 160.58ZM138.591 145.957C141.419 150.314 144.302 154.208 147.103 157.585C142.697 156.85 137.748 156.387 132.363 156.142C125.428 150.859 118.086 144.378 110.743 136.971C120.995 139.585 130.432 142.663 138.591 145.985V145.957ZM161.816 145.304C158.933 141.982 155.534 138.523 151.645 134.983C149.768 126.542 148.354 116.929 147.511 106.582C153.603 115.023 158.797 123.301 162.876 130.953C162.196 136.127 161.843 140.92 161.816 145.304ZM170.192 147.346C169.403 149.743 168.805 151.975 168.37 154.072C167.228 152.221 165.895 150.342 164.345 148.381C164.263 144.378 164.481 139.912 164.998 135.092C167.146 139.449 168.914 143.588 170.219 147.373L170.192 147.346ZM177.48 130.545C175.876 133.595 174.461 136.59 173.211 139.476C172.585 140.92 172.041 142.309 171.524 143.643C169.974 139.531 167.962 135.147 165.541 130.49C166.711 121.913 168.696 112.409 171.524 102.415C174.353 112.409 176.338 121.94 177.507 130.518L177.48 130.545ZM179.52 126.814C178.133 117.964 175.903 108.215 172.803 97.9494C174.326 92.9117 176.039 87.7378 177.942 82.564C182.566 70.0378 187.923 58.383 193.525 48.2803C195.293 59.6084 196.272 72.3796 196.272 85.75C196.272 91.2779 196.109 96.6968 195.755 101.952C189.446 110.394 183.925 118.808 179.465 126.787L179.52 126.814ZM191.35 135.011C187.488 138.523 184.061 141.982 181.206 145.331C181.152 140.947 180.798 136.1 180.118 130.926C184.252 123.138 189.446 114.914 195.483 106.582C194.668 116.957 193.226 126.596 191.35 135.038V135.011ZM186.264 152.193C184.116 153.5 182.185 154.862 180.472 156.196C180.798 154.045 181.016 151.73 181.124 149.252C183.654 146.121 186.754 142.853 190.262 139.476C190.126 140.021 189.99 140.566 189.854 141.083C188.766 145.141 187.57 148.871 186.264 152.166V152.193ZM185.285 160.117C186.346 158.239 187.325 156.142 188.277 153.827C191.758 151.758 195.783 149.688 200.27 147.727C197.523 151.73 194.776 155.298 192.111 158.293C189.636 158.81 187.352 159.409 185.285 160.117ZM184.551 165.509C183.463 165.591 182.403 165.7 181.451 165.863C182.049 165.155 182.647 164.366 183.218 163.549C184.932 162.841 186.89 162.214 189.011 161.615C187.488 163.113 185.992 164.42 184.551 165.509ZM188.331 165.482C189.963 164.066 191.595 162.432 193.253 160.635C197.333 159.791 201.956 159.192 207.041 158.838C203.017 161.697 199.155 164.148 195.538 166.108C192.982 165.754 190.561 165.536 188.331 165.482ZM185.312 170.138C184.442 169.893 183.599 169.703 182.783 169.567C183.626 169.104 184.442 168.559 185.285 167.933C185.911 167.906 186.536 167.906 187.135 167.906C188.521 167.906 190.017 167.987 191.54 168.123C189.555 169.022 187.651 169.757 185.856 170.302C185.693 170.247 185.503 170.193 185.34 170.138H185.312ZM188.331 177.627C190.588 177.572 192.982 177.355 195.538 177.001C199.155 178.934 203.017 181.385 207.041 184.271C201.956 183.917 197.333 183.291 193.253 182.474C191.595 180.65 189.936 179.016 188.331 177.627ZM181.478 177.246C182.457 177.409 183.463 177.491 184.551 177.572C185.992 178.662 187.488 179.969 189.011 181.466C186.89 180.895 184.959 180.268 183.246 179.56C182.674 178.716 182.076 177.954 181.478 177.246ZM178.867 180.214C179.71 180.677 180.635 181.14 181.614 181.575C182.62 183.1 183.572 184.87 184.524 186.831C182.729 185.606 181.124 184.353 179.765 183.128C179.52 182.093 179.221 181.14 178.894 180.214H178.867ZM175.25 185.197C175.359 184.135 175.413 183.1 175.441 182.12C176.093 182.855 176.773 183.618 177.589 184.353C177.997 186.15 178.269 188.138 178.459 190.289C177.181 188.519 176.12 186.804 175.277 185.17L175.25 185.197ZM158.498 177.572C159.586 177.491 160.646 177.382 161.598 177.218C161 177.926 160.429 178.716 159.858 179.533C158.144 180.241 156.186 180.895 154.065 181.466C155.588 179.969 157.084 178.662 158.525 177.572H158.498ZM154.718 177.627C153.086 179.016 151.454 180.65 149.795 182.474C145.716 183.291 141.093 183.89 136.007 184.271C140.032 181.385 143.894 178.934 147.511 177.001C150.067 177.355 152.488 177.572 154.718 177.627ZM160.266 173.542C159.45 174.032 158.607 174.55 157.764 175.176C157.138 175.203 156.513 175.231 155.914 175.231C154.527 175.231 153.032 175.149 151.509 175.013C153.494 174.114 155.425 173.379 157.192 172.807C158.253 173.134 159.259 173.352 160.266 173.542ZM157.764 167.933C158.607 168.559 159.45 169.104 160.266 169.567C159.286 169.757 158.253 170.002 157.192 170.302C155.398 169.757 153.494 169.022 151.509 168.123C153.032 167.987 154.527 167.906 155.914 167.906C156.513 167.906 157.138 167.906 157.764 167.933ZM159.83 163.549C160.402 164.393 161 165.155 161.598 165.863C160.619 165.7 159.613 165.591 158.525 165.509C157.084 164.42 155.588 163.113 154.065 161.615C156.186 162.187 158.117 162.813 159.83 163.549ZM154.772 153.854C154.772 153.854 154.799 153.963 154.826 154.018C154.908 154.181 154.962 154.345 155.044 154.508C155.234 154.944 155.398 155.325 155.588 155.733C156.295 157.313 157.029 158.783 157.764 160.117C155.697 159.437 153.412 158.838 150.938 158.293C148.272 155.27 145.526 151.73 142.779 147.727C147.266 149.715 151.318 151.758 154.799 153.827L154.772 153.854ZM167.608 160.962C166.983 160.226 166.276 159.464 165.487 158.729C165.079 156.931 164.78 154.944 164.59 152.792C165.868 154.562 166.901 156.251 167.771 157.885C167.663 158.974 167.608 159.981 167.581 160.962H167.608ZM172.748 157.476C172.259 158.429 171.851 159.382 171.524 160.308C171.198 159.409 170.79 158.484 170.328 157.531C170.573 155.706 170.98 153.745 171.552 151.621C172.123 153.718 172.531 155.679 172.775 157.503L172.748 157.476ZM177.562 158.729C176.773 159.491 176.066 160.226 175.413 160.989C175.413 160.009 175.359 159.001 175.223 157.912C176.093 156.278 177.154 154.562 178.405 152.792C178.214 154.944 177.915 156.931 177.535 158.729H177.562ZM181.668 161.506C180.662 161.942 179.737 162.405 178.867 162.895C179.193 161.996 179.493 161.016 179.737 159.981C181.124 158.756 182.702 157.503 184.524 156.278C183.599 158.239 182.647 159.981 181.668 161.533V161.506ZM163.311 159.981C163.556 161.016 163.855 161.969 164.182 162.895C163.339 162.405 162.414 161.969 161.435 161.533C160.429 160.009 159.477 158.239 158.525 156.278C160.32 157.503 161.924 158.756 163.284 159.981H163.311ZM185.312 175.149C184.469 174.523 183.626 174.005 182.81 173.515C183.789 173.324 184.823 173.107 185.884 172.78C187.678 173.324 189.582 174.06 191.567 174.986C190.044 175.122 188.549 175.203 187.162 175.203C186.563 175.203 185.965 175.203 185.312 175.149ZM178.704 148.381C177.154 150.342 175.794 152.275 174.652 154.099C174.217 151.975 173.618 149.715 172.83 147.346C173.591 145.168 174.461 142.88 175.522 140.457C176.284 138.687 177.154 136.862 178.051 135.011C178.568 139.858 178.786 144.378 178.704 148.408V148.381ZM161.924 149.252C162.006 151.73 162.224 154.045 162.55 156.196C160.837 154.862 158.906 153.5 156.785 152.193C155.316 148.463 153.956 144.187 152.76 139.476C156.268 142.853 159.368 146.121 161.924 149.252ZM171.361 190.861C170.872 189.009 170.518 187.267 170.301 185.633C170.79 184.68 171.198 183.727 171.524 182.801C171.878 183.727 172.259 184.652 172.748 185.606C172.503 187.43 172.095 189.391 171.524 191.487C171.47 191.27 171.416 191.079 171.361 190.861ZM178.051 207.962C175.903 203.605 174.162 199.493 172.83 195.681C173.618 193.312 174.217 191.052 174.652 188.928C175.794 190.779 177.154 192.686 178.704 194.673C178.786 198.676 178.568 203.142 178.051 207.962ZM102.475 183.536C111.939 179.07 121.077 175.448 129.508 172.807C134.539 174.359 139.325 175.557 143.731 176.374C139.896 178.634 135.817 181.358 131.629 184.489C129.263 184.598 126.842 184.652 124.313 184.652C117.433 184.652 110.063 184.271 102.475 183.536ZM157.002 199.412C155.67 200.828 154.228 202.244 152.732 203.687C153.929 198.949 155.289 194.646 156.757 190.888C158.906 189.554 160.809 188.22 162.523 186.858C162.196 189.009 161.979 191.324 161.87 193.829C160.429 195.627 158.797 197.505 156.975 199.412H157.002ZM164.372 194.701C165.922 192.74 167.282 190.807 168.424 188.982C168.859 191.106 169.458 193.339 170.246 195.708C168.941 199.493 167.173 203.632 165.025 207.989C164.508 203.169 164.29 198.704 164.372 194.701ZM184.769 15.7667C184.877 16.0117 184.986 16.2568 185.122 16.5291C185.258 16.8287 185.394 17.1282 185.53 17.4278C188.549 24.5078 191.078 33.739 192.954 44.3863C186.781 55.1425 180.825 67.8593 175.685 81.7198C174.19 85.7772 172.803 89.8074 171.552 93.7559C170.301 89.8074 168.914 85.8045 167.418 81.7198C162.305 67.8593 156.349 55.1425 150.149 44.3863C154.5 19.5518 162.55 2.42355 171.552 2.42355C171.96 2.42355 172.34 2.45078 172.748 2.53247C176.963 3.2677 181.152 7.92418 184.796 15.7667H184.769ZM147.239 241.102C153.684 232.524 159.178 224.137 163.529 216.295C164.916 225.118 167.146 234.839 170.246 245.105C168.723 250.143 167.01 255.317 165.106 260.49C160.483 273.017 155.126 284.699 149.523 294.774C147.783 283.446 146.777 270.675 146.777 257.304C146.777 251.777 146.94 246.358 147.266 241.102H147.239ZM196.327 257.304C196.327 270.675 195.32 283.446 193.58 294.774C188.005 284.699 182.62 273.017 177.997 260.49C176.066 255.289 174.38 250.143 172.857 245.105C175.93 234.866 178.16 225.145 179.547 216.295C183.925 224.137 189.392 232.524 195.864 241.129C196.163 246.412 196.327 251.804 196.327 257.304ZM282.944 281.54C283.052 281.921 283.161 282.302 283.27 282.656C283.406 283.174 283.569 283.718 283.705 284.236C283.705 284.29 283.705 284.345 283.732 284.372C285.5 291.724 285.174 297.225 282.617 300.22C282.373 300.52 282.073 300.792 281.774 301.064C280.333 302.263 278.375 302.862 275.927 302.862C266.98 302.862 253.192 295.237 238.126 282.684C235.869 270.566 232.116 257.032 226.894 242.927C225.398 238.869 223.821 234.948 222.216 231.108C225.752 233.314 229.423 235.547 233.231 237.698C246.067 244.996 258.93 251.014 270.815 255.398C276.362 264.82 280.469 273.561 282.753 280.914C282.808 281.104 282.889 281.322 282.944 281.54ZM295.644 128.639C321.371 128.639 338.939 133.949 340.435 142.2C341.522 148.272 333.908 155.897 319.549 163.058C314.436 165.618 308.67 168.014 302.416 170.247C290.64 166.136 276.879 162.596 261.922 159.981C257.652 159.246 253.382 158.593 249.167 158.075C252.947 156.142 256.7 154.127 260.508 151.975C273.317 144.678 285.065 136.699 294.937 128.693C295.182 128.693 295.426 128.693 295.671 128.693L295.644 128.639ZM306.005 171.527C311.308 169.567 316.231 167.443 320.664 165.237C336.301 157.422 344.188 149.089 342.855 141.764C341.169 132.288 324.389 126.515 297.847 126.215C302.144 122.566 306.06 118.917 309.459 115.323C321.425 102.715 325.967 92.2309 322.187 85.7772C319.821 81.7198 314.572 79.6775 306.576 79.6775C298.064 79.6775 286.914 82.0466 274.54 86.3218C287.05 64.3738 291.021 46.4831 283.352 40.1383C281.448 38.5861 278.946 37.7692 275.927 37.7692C266.926 37.7692 253.464 44.9037 238.751 56.8036C239.676 51.2485 240.274 45.9929 240.573 41.0369C241.525 23.7998 238.153 12.9074 231.055 10.3477C230.022 9.9665 228.907 9.77588 227.737 9.77588C218.627 9.77588 206.47 21.8936 194.94 41.0097C193.172 31.8329 190.887 23.7998 188.195 17.3733C188.168 17.2644 188.114 17.1554 188.086 17.0738C187.869 16.5836 187.651 16.1207 187.461 15.6305C187.27 15.2493 187.107 14.8681 186.944 14.4868C186.917 14.4051 186.863 14.3507 186.835 14.269C182.403 4.98325 177.154 0 171.579 0C161.544 0 152.923 16.2568 148.191 41.0369C136.633 21.9208 124.476 9.80311 115.393 9.80311C114.224 9.80311 113.109 9.99373 112.075 10.375C102.639 13.7516 100.191 31.9146 104.325 56.7764C89.6121 44.9037 76.1504 37.7964 67.1759 37.7964C64.1572 37.7964 61.628 38.5861 59.7516 40.1655C52.0553 46.5103 56.053 64.401 68.5629 86.3491C56.1618 82.0738 45.0661 79.7047 36.5268 79.7047C28.5585 79.7047 23.2826 81.7471 20.9166 85.8045C15.9127 94.3822 25.839 109.822 45.2021 126.242C29.2112 126.433 16.7829 128.584 9.05947 132.369C3.97394 134.847 0.928065 138.033 0.248182 141.791C-1.49232 151.513 13.1932 162.677 37.0435 171.582C13.0844 180.323 -1.6011 191.487 0.1394 201.236C1.85271 210.712 18.5778 216.458 45.0933 216.785C25.7302 233.205 15.7767 248.645 20.8079 257.223C23.1738 261.28 28.4225 263.322 36.418 263.322C44.9573 263.322 56.1074 260.926 68.5085 256.651C65.7074 261.552 63.3142 266.291 61.3561 270.811C54.4757 286.714 53.8774 298.069 59.6428 302.862C61.5465 304.441 64.0484 305.231 67.0671 305.231C76.0416 305.231 89.5033 298.124 104.216 286.251C100.082 311.113 102.53 329.276 111.967 332.652C113.027 333.033 114.115 333.224 115.284 333.224C124.368 333.224 136.524 321.106 148.082 301.99C152.814 326.743 161.435 343 171.47 343C181.505 343 190.126 326.743 194.858 301.99C206.389 321.106 218.572 333.224 227.656 333.224C228.825 333.224 229.94 333.033 230.973 332.652C240.41 329.276 242.858 311.113 238.724 286.251C253.41 298.124 266.871 305.231 275.873 305.231C278.919 305.231 281.421 304.441 283.297 302.862C287.839 299.104 288.41 291.261 285.119 280.342C285.038 280.015 284.929 279.715 284.847 279.389C284.766 279.144 284.657 278.871 284.575 278.599C282.427 272.064 279.028 264.63 274.486 256.651C286.86 260.926 297.983 263.322 306.522 263.322C314.49 263.322 319.766 261.28 322.132 257.223C327.136 248.645 317.21 233.205 297.847 216.785C324.362 216.458 341.115 210.712 342.801 201.236C344.541 191.487 329.828 180.323 305.951 171.418L306.005 171.527Z" fill="#70319D"/>
</svg>
