<svg xmlns="http://www.w3.org/2000/svg" viewBox="0 0 275.41 301.62"><defs><style>.cls-1{fill:#231f20;}</style></defs><g id="Layer_2" data-name="Layer 2"><g id="Layer_1-2" data-name="Layer 1"><path class="cls-1" d="M76.9,299.1c77.22-29,118.48-96.42,110.31-179.94h-9.32c-24.93,0-49.87.24-74.8-.16-6.49-.11-10.21,2-13.59,7.42-8.59,13.72-17.82,27.05-27.8,42.05h74.83c-2.85,8.24-4.59,15.15-7.53,21.5-21.72,47-69.26,72.39-120.82,65.17C2,254.27,0,251.84,0,245.54Q.3,127.36.11,9.18C.1,4.34-.36,0,6.94.05,51.8.63,96.81-1.24,141.49,1.8c70.71,4.81,128.13,65,133.47,136,5.85,77.76-45.83,146.39-122.6,159.77-24.61,4.28-50.21,2.85-75.36,4C77,300.78,76.93,299.94,76.9,299.1Z"/></g></g></svg>